<svg data-v-423bf9ae="" xmlns="http://www.w3.org/2000/svg" viewBox="0 0 342.6735035389105 60" class="font"><!----><!----><!----><g data-v-423bf9ae="" id="2f90a042-0786-4fe6-bc76-99e39f1a36b1" fill="black" transform="matrix(6.122449456230433,0,0,6.122449456230433,-4.102044943744744,-23.08163481004943)"><path d="M0.67 9.91C0.67 12.05 2.18 13.57 4.24 13.57C5.38 13.57 6.34 13.13 6.99 12.38L6.64 12.00C6.08 12.66 5.24 13.02 4.26 13.02C2.51 13.02 1.25 11.75 1.25 9.90C1.25 8.08 2.51 6.80 4.26 6.80C5.17 6.80 5.92 7.14 6.51 7.69L6.85 7.27C6.20 6.62 5.29 6.24 4.24 6.24C2.18 6.24 0.67 7.77 0.67 9.91ZM8.50 9.90C8.50 12.05 10.02 13.57 12.10 13.57C14.18 13.57 15.69 12.05 15.69 9.90C15.69 7.77 14.18 6.24 12.10 6.24C10.02 6.24 8.50 7.77 8.50 9.90ZM9.07 9.91C9.07 8.08 10.35 6.80 12.10 6.80C13.86 6.80 15.12 8.08 15.12 9.91C15.12 11.75 13.86 13.02 12.10 13.02C10.35 13.02 9.07 11.75 9.07 9.91ZM17.58 10.71C17.58 12.50 18.61 13.57 20.37 13.57C21.81 13.55 22.83 12.87 23.30 11.61L23.30 13.55L23.87 13.55L23.87 6.26L23.30 6.26L23.30 9.83C23.30 11.73 22.26 12.94 20.50 12.98C19.03 12.98 18.16 12.10 18.16 10.60L18.16 6.26L17.58 6.26ZM26.80 13.55L27.38 13.55L27.38 9.60C27.51 7.91 28.49 6.85 30.10 6.85L30.10 6.24C28.80 6.27 27.85 6.92 27.38 8.09L27.38 6.26L26.80 6.26ZM30.63 12.56C31.30 13.20 32.28 13.57 33.31 13.57C34.62 13.57 35.84 12.96 35.84 11.61C35.84 9.03 31.58 10.00 31.58 8.04C31.58 7.17 32.38 6.78 33.40 6.78C34.10 6.78 34.75 6.97 35.25 7.29L35.50 6.82C34.93 6.47 34.23 6.24 33.42 6.24C32.13 6.24 31.02 6.80 31.02 8.08C31.02 10.58 35.34 9.65 35.28 11.70C35.24 12.63 34.36 13.03 33.33 13.03C32.41 13.03 31.53 12.70 30.90 12.11ZM37.03 9.91C37.03 12.05 38.53 13.57 40.59 13.57C41.75 13.57 42.74 13.13 43.41 12.40L43.08 12.03C42.49 12.67 41.61 13.03 40.61 13.03C38.92 13.03 37.69 11.84 37.60 10.07L43.97 10.07C44.02 7.81 42.73 6.24 40.59 6.24C38.53 6.24 37.03 7.77 37.03 9.91ZM37.62 9.55C37.76 7.90 38.95 6.78 40.59 6.78C42.25 6.78 43.33 7.90 43.44 9.55ZM44.72 13.55L45.36 13.55L46.62 10.77L52.35 10.77L53.62 13.55L54.26 13.55L49.78 3.77L49.15 3.77ZM46.87 10.18L49.46 4.44L52.08 10.18ZM56.06 13.55L56.64 13.55L56.64 3.77L56.06 3.77Z"></path></g><!----><!----></svg>